# xmcd
#
# Track frame offsets: 
#        150
#        11673
#        28277
#        40721
#        54055
#        67675
#        80718
#        93775
#        106496
#        120244
#        131856
#        147184
#        158970
#        170825
#        184802
#        197536
#        211139
#        224368
#        236260
#        249911
#        262443
#        276911
#        289995
#        302466
#        316795
#        329071
#        341196
#
# Disc length: 4728 seconds
#
# Revision: 0
# Processed by: cddbd v1.5.2PL0 Copyright (c) Steve Scherf et al.
# Submitted via: ExactAudioCopy v0.99pb4
#
DISCID=8e12761b
DTITLE=Various Artist - Classic Country Music on the Decca 5000 Series
DYEAR=2004
DGENRE=Country
TTITLE0=Homer Briarhopper - I Am Just What I Am [1938]
TTITLE1=Bill Cox - In 1992 [1931]
TTITLE2=Clayton McMichen's Georgia Wildcats - Bile Dem Cabbage Down [1
TTITLE2=937]
TTITLE3=Kelly Family (Jerry and Ramon) - Out on the Desert [1934]
TTITLE4=Carlisle Brothers - Broken Heart [1939]
TTITLE5=Happy Jack Turner - Pretty Quadroon [1934]
TTITLE6=Hugh and Shug's Radio Pals - Sugar Babe [1937]
TTITLE7=Four Aces with Leo Soileau - When the Moon Comes over the Moun
TTITLE7=tain [1936]
TTITLE8=Frank (Luther) and Buddy Ross - Pray for Me Mother [1937]
TTITLE9=Ralph Hodges' Dixie Vagabonds - His Last Words [1936]
TTITLE10=Rice Brothers Gang - My Carolina Sunshine Girl [1941]
TTITLE11=Riley Puckett - Take Me Back to My Carolina Home [1937]
TTITLE12=Cliff Bruner and His Texas Wanderers - Jessie's Sister [1941]
TTITLE13=Stuart Hamblen's Covered Wagon Jubilee - Sunshine Alley [1935
TTITLE13=]
TTITLE14=Louisiana Strollers - Married Woman Blues [1936]
TTITLE15=Leon's Lone Star Cowboys - Mistreated Blues [1936]
TTITLE16=Dave Edwards and His Alabama Boys - Oh by Jingo, Oh by Gee [193
TTITLE16=7]
TTITLE17=Red River Dave McEnery - Down Del Rio Way [1940]
TTITLE18=Texas Ruby - T. for Texas [1937]
TTITLE19=Tex Owens and His Texas Rangers - Prairie Dream Boat [1935]
TTITLE20=Carolina Buddys (Womble and Love) - Mother the Queen of My Hear
TTITLE20=t [1935]
TTITLE21=Edith and Sherman Collins - You're a Flower Blooming in the Wil
TTITLE21=dwood [1938]
TTITLE22=Curly Fox with Joe Shelton - Listen to the Mocking Bird [1935
TTITLE22=]
TTITLE23=Log Cabin Boys (Frankie More and Freddie Owen) - New Crawdad So
TTITLE23=ng [1935]
TTITLE24=Leon Scott and Claude Boone - Don't Dig Mother's Grave [1938]
TTITLE25=Mack (McCravy) Brothers - On the Good Old Santa Fe [1935]
TTITLE26=Ross Rhythm Rascals - Lulu's Back in Town [1937]
EXTD=CD: BACM [British Archive of Country Music] CD D 077 (2004).
EXTT0=
EXTT1=
EXTT2=
EXTT3=
EXTT4=
EXTT5=
EXTT6=
EXTT7=
EXTT8=
EXTT9=
EXTT10=
EXTT11=
EXTT12=
EXTT13=
EXTT14=
EXTT15=
EXTT16=
EXTT17=
EXTT18=
EXTT19=
EXTT20=
EXTT21=
EXTT22=
EXTT23=
EXTT24=
EXTT25=
EXTT26=
PLAYORDER=
